<svg width="16" height="16" viewBox="0 0 16 16" fill="none" xmlns="http://www.w3.org/2000/svg">
<path d="M6.66659 10H3.99992C3.29267 10 2.6144 10.281 2.1143 10.781C1.6142 11.2811 1.33325 11.9594 1.33325 12.6667V14M14.4666 10.9334L13.8666 10.7334M10.1333 9.26673L9.53328 9.06673M11.0667 12.4667L11.2667 11.8667M12.7333 8.13337L12.9333 7.53337M13.0666 12.4666L12.7999 11.8M11.1999 8.20003L10.9332 7.53337M9.53328 11.0666L10.2 10.8M13.7999 9.19994L14.4666 8.93327M13.9999 10C13.9999 11.1046 13.1045 12 11.9999 12C10.8953 12 9.99992 11.1046 9.99992 10C9.99992 8.89543 10.8953 8 11.9999 8C13.1045 8 13.9999 8.89543 13.9999 10ZM8.66659 4.66667C8.66659 6.13943 7.47268 7.33333 5.99992 7.33333C4.52716 7.33333 3.33325 6.13943 3.33325 4.66667C3.33325 3.19391 4.52716 2 5.99992 2C7.47268 2 8.66659 3.19391 8.66659 4.66667Z" stroke="#0A0A0A" stroke-width="1.33" stroke-linecap="round" stroke-linejoin="round"/>
</svg>
